<svg xmlns="http://www.w3.org/2000/svg" xmlns:xlink="http://www.w3.org/1999/xlink" contentStyleType="text/css" height="216px" preserveAspectRatio="none" style="width:290px;height:216px;background:#FFFFFF;" version="1.1" viewBox="0 0 290 216" width="290px" zoomAndPan="magnify"><defs/><g><rect fill="#ADD8E6" height="204.2539" style="stroke:#181818;stroke-width:0.5;" width="65.9318" x="1" y="6"/><text fill="#000000" font-family="sans-serif" font-size="13" font-weight="bold" lengthAdjust="spacing" textLength="49.9688" x="8.9815" y="19.897">Process</text><rect fill="#ADD8E6" height="204.2539" style="stroke:#181818;stroke-width:0.5;" width="63.8178" x="220.3311" y="6"/><text fill="#000000" font-family="sans-serif" font-size="13" font-weight="bold" lengthAdjust="spacing" textLength="49.9688" x="227.2556" y="19.897">Process</text><line style="stroke:#181818;stroke-width:0.5;stroke-dasharray:5.0,5.0;" x1="33" x2="33" y1="61.7739" y2="173.186"/><line style="stroke:#181818;stroke-width:0.5;stroke-dasharray:5.0,5.0;" x1="142.8511" x2="142.8511" y1="61.7739" y2="173.186"/><line style="stroke:#181818;stroke-width:0.5;stroke-dasharray:5.0,5.0;" x1="251.3311" x2="251.3311" y1="61.7739" y2="173.186"/><rect fill="#E2E2F0" height="33.0679" rx="2.5" ry="2.5" style="stroke:#181818;stroke-width:0.5;" width="57.9318" x="5" y="27.706"/><text fill="#000000" font-family="sans-serif" font-size="14" lengthAdjust="spacing" textLength="43.9318" x="12" y="49.672">Tracee</text><rect fill="#E2E2F0" height="33.0679" rx="2.5" ry="2.5" style="stroke:#181818;stroke-width:0.5;" width="57.9318" x="5" y="172.186"/><text fill="#000000" font-family="sans-serif" font-size="14" lengthAdjust="spacing" textLength="43.9318" x="12" y="194.1519">Tracee</text><rect fill="#E2E2F0" height="33.0679" rx="2.5" ry="2.5" style="stroke:#181818;stroke-width:0.5;" width="56.5038" x="114.8511" y="27.706"/><text fill="#000000" font-family="sans-serif" font-size="14" lengthAdjust="spacing" textLength="42.5038" x="121.8511" y="49.672">Kernel</text><rect fill="#E2E2F0" height="33.0679" rx="2.5" ry="2.5" style="stroke:#181818;stroke-width:0.5;" width="56.5038" x="114.8511" y="172.186"/><text fill="#000000" font-family="sans-serif" font-size="14" lengthAdjust="spacing" textLength="42.5038" x="121.8511" y="194.1519">Kernel</text><rect fill="#E2E2F0" height="33.0679" rx="2.5" ry="2.5" style="stroke:#181818;stroke-width:0.5;" width="55.8178" x="224.3311" y="27.706"/><text fill="#000000" font-family="sans-serif" font-size="14" lengthAdjust="spacing" textLength="41.8178" x="231.3311" y="49.672">Tracer</text><rect fill="#E2E2F0" height="33.0679" rx="2.5" ry="2.5" style="stroke:#181818;stroke-width:0.5;" width="55.8178" x="224.3311" y="172.186"/><text fill="#000000" font-family="sans-serif" font-size="14" lengthAdjust="spacing" textLength="41.8178" x="231.3311" y="194.1519">Tracer</text><polygon fill="#181818" points="131.103,91.4799,141.103,95.4799,131.103,99.4799,135.103,95.4799" style="stroke:#181818;stroke-width:1.0;"/><line style="stroke:#181818;stroke-width:1.0;" x1="33.9659" x2="137.103" y1="95.4799" y2="95.4799"/><text fill="#000000" font-family="sans-serif" font-size="13" lengthAdjust="spacing" textLength="85.1371" x="40.9659" y="89.6709">open /foo/bar</text><polygon fill="#181818" points="240.24,123.186,250.24,127.186,240.24,131.186,244.24,127.186" style="stroke:#181818;stroke-width:1.0;"/><line style="stroke:#181818;stroke-width:1.0;" x1="143.103" x2="246.24" y1="127.186" y2="127.186"/><text fill="#000000" font-family="sans-serif" font-size="13" lengthAdjust="spacing" textLength="85.1371" x="150.103" y="121.377">open /foo/bar</text><polygon fill="#181818" points="154.103,137.186,144.103,141.186,154.103,145.186,150.103,141.186" style="stroke:#181818;stroke-width:1.0;"/><line style="stroke:#181818;stroke-width:1.0;" x1="148.103" x2="251.24" y1="141.186" y2="141.186"/><polygon fill="#181818" points="44.9659,151.186,34.9659,155.186,44.9659,159.186,40.9659,155.186" style="stroke:#181818;stroke-width:1.0;"/><line style="stroke:#181818;stroke-width:1.0;" x1="38.9659" x2="142.103" y1="155.186" y2="155.186"/><!--SRC=[IyglK50AACfFJYqkLb9GzibCpoXnoYbDvIf8B2h9JCuiICmhKGWfIanEJULApKjHICglu4AHyqujoalDuU9A8jgW8eH148CLTEsWnYXOAUGNfEOfwAVbv-id9HPnGOM12Y1QCHH0XU4ceEj81G00]--></g></svg>