<?xml version="1.0" encoding="UTF-8" standalone="no"?>
<!-- Generator: Adobe Illustrator 28.0.0, SVG Export Plug-In . SVG Version: 6.00 Build 0)  -->

<svg
   version="1.1"
   id="Layer_1"
   x="0px"
   y="0px"
   viewBox="0 0 63.449662 63.412498"
   xml:space="preserve"
   sodipodi:docname="sandia.svg"
   width="63.449661"
   height="63.412498"
   inkscape:version="1.3.2 (091e20ef0f, 2023-11-25)"
   xmlns:inkscape="http://www.inkscape.org/namespaces/inkscape"
   xmlns:sodipodi="http://sodipodi.sourceforge.net/DTD/sodipodi-0.dtd"
   xmlns="http://www.w3.org/2000/svg"
   xmlns:svg="http://www.w3.org/2000/svg"><defs
   id="defs22" /><sodipodi:namedview
   id="namedview22"
   pagecolor="#ffffff"
   bordercolor="#000000"
   borderopacity="0.25"
   inkscape:showpageshadow="2"
   inkscape:pageopacity="0.0"
   inkscape:pagecheckerboard="0"
   inkscape:deskcolor="#d1d1d1"
   showgrid="false"
   inkscape:zoom="2.6559455"
   inkscape:cx="82.644769"
   inkscape:cy="31.627155"
   inkscape:window-width="1118"
   inkscape:window-height="712"
   inkscape:window-x="0"
   inkscape:window-y="0"
   inkscape:window-maximized="1"
   inkscape:current-layer="Layer_1" />
<style
   type="text/css"
   id="style1">
	.st0{fill:#161616;}
	.st1{fill:#00ADD0;}
</style>

<g
   id="g22"
   transform="translate(-19.983673,-20.9875)">
	<path
   class="st1"
   d="M 83.4,52.8 C 83.4,51.2 83.6,42.5 82.6,32.7 82.1,27.9 78.1,22.6 72.3,22 63,20.8 53.3,21 51.7,21 c -1.5,0 -11.5,-0.1 -20.6,0.9 -5.7,0.7 -9.8,5.7 -10.3,10.7 -1,9.8 -0.8,18.5 -0.8,20.1 0,1.7 -0.2,9.8 0.8,20.1 0.5,5.2 4.6,10.1 10.3,10.7 8,0.9 16.7,0.9 19.7,0.9 h 2.5 c 0.1,0 0.2,0 0.2,0 h 0.1 v 0 c 3.7,0 11.3,-0.1 18.6,-0.9 5.6,-0.6 9.8,-5.3 10.3,-10.7 1.2,-10.4 0.9,-18.4 0.9,-20 z M 76.2,70.1 C 75.7,74.5 74.1,76.8 69,77.3 63,77.9 56.9,78 53.7,78 v 0 h -0.9 c -0.5,0 -0.9,0 -1.1,0 -1.6,0 -9.5,0.1 -17.3,-0.7 -5,-0.5 -6.7,-2.7 -7.2,-7.2 -0.8,-7.8 -0.7,-15.7 -0.7,-17.3 0,-1.5 -0.1,-9.5 0.7,-17.3 0.4,-4.2 1.9,-6.6 7.2,-7.2 7.8,-0.8 15.8,-0.7 17.3,-0.7 1.6,0 9.5,-0.1 17.3,0.7 5.2,0.5 6.7,2.8 7.2,7.2 0.8,7.8 0.7,15.7 0.7,17.3 -0.1,1.6 0.1,9.5 -0.7,17.3 z"
   id="path21" />
	<path
   class="st1"
   d="M 70.7,40.9 H 57.8 l -0.4,-8.8 c 0,-0.1 0.1,-0.4 0.1,-0.8 -6.6,-0.2 -10.6,-0.1 -16.4,0.1 0.1,0.3 0.1,0.5 0.1,0.7 L 41,35.4 c 0,0.2 -0.1,0.4 -0.2,0.7 l 5,-0.2 -0.2,4.9 h -13 c -0.2,0 -0.4,0 -0.9,-0.1 -0.6,13.7 -0.1,17.9 0.1,26.7 l 5.9,0.4 C 37.5,64 37.4,60.6 37.4,58.5 l 2.2,0.1 c 0.1,0 0.2,0 0.3,0.1 l 0.3,-8.3 h 5.1 L 44.6,74 c 5.2,0.2 8.6,0.2 14.3,0 L 58.1,50.4 h 5 l 0.3,8.3 c 0.1,-0.1 0.2,-0.1 0.3,-0.1 l 2.2,-0.1 c 0,2.1 -0.1,5.5 -0.3,9.3 l 5.9,-0.4 c 0.2,-8.8 0.7,-13 0.1,-26.7 -0.4,0.2 -0.7,0.2 -0.9,0.2 z"
   id="path22" />
</g>
</svg>
