<?xml version="1.0" encoding="utf-8" standalone="no"?>
<!DOCTYPE svg PUBLIC "-//W3C//DTD SVG 1.1//EN"
  "http://www.w3.org/Graphics/SVG/1.1/DTD/svg11.dtd">
<svg xmlns:xlink="http://www.w3.org/1999/xlink" width="153.040625pt" height="158.52024pt" viewBox="0 0 153.040625 158.52024" xmlns="http://www.w3.org/2000/svg" version="1.1">
 <metadata>
  <rdf:RDF xmlns:dc="http://purl.org/dc/elements/1.1/" xmlns:cc="http://creativecommons.org/ns#" xmlns:rdf="http://www.w3.org/1999/02/22-rdf-syntax-ns#">
   <cc:Work>
    <dc:type rdf:resource="http://purl.org/dc/dcmitype/StillImage"/>
    <dc:date>2024-03-04T02:17:03.176965</dc:date>
    <dc:format>image/svg+xml</dc:format>
    <dc:creator>
     <cc:Agent>
      <dc:title>Matplotlib v3.8.2, https://matplotlib.org/</dc:title>
     </cc:Agent>
    </dc:creator>
   </cc:Work>
  </rdf:RDF>
 </metadata>
 <defs>
  <style type="text/css">*{stroke-linejoin: round; stroke-linecap: butt}</style>
 </defs>
 <g id="figure_1">
  <g id="patch_1">
   <path d="M 0 158.52024 
L 153.040625 158.52024 
L 153.040625 0 
L 0 0 
z
" style="fill: #ffffff"/>
  </g>
  <g id="axes_1">
   <g id="patch_2">
    <path d="M 34.240625 120.96399 
L 145.840625 120.96399 
L 145.840625 10.08399 
L 34.240625 10.08399 
z
" style="fill: #ffffff"/>
   </g>
   <g id="matplotlib.axis_1">
    <g id="xtick_1">
     <g id="line2d_1">
      <defs>
       <path id="m1e5a782bea" d="M 0 0 
L 0 3.5 
" style="stroke: #000000; stroke-width: 0.8"/>
      </defs>
      <g>
       <use xlink:href="#m1e5a782bea" x="39.314721" y="120.96399" style="stroke: #000000; stroke-width: 0.8"/>
      </g>
     </g>
     <g id="text_1">
      <!-- 0 -->
      <g transform="translate(36.133471 135.562428) scale(0.1 -0.1)">
       <defs>
        <path id="DejaVuSans-30" d="M 2034 4250 
Q 1547 4250 1301 3770 
Q 1056 3291 1056 2328 
Q 1056 1369 1301 889 
Q 1547 409 2034 409 
Q 2525 409 2770 889 
Q 3016 1369 3016 2328 
Q 3016 3291 2770 3770 
Q 2525 4250 2034 4250 
z
M 2034 4750 
Q 2819 4750 3233 4129 
Q 3647 3509 3647 2328 
Q 3647 1150 3233 529 
Q 2819 -91 2034 -91 
Q 1250 -91 836 529 
Q 422 1150 422 2328 
Q 422 3509 836 4129 
Q 1250 4750 2034 4750 
z
" transform="scale(0.015625)"/>
       </defs>
       <use xlink:href="#DejaVuSans-30"/>
      </g>
     </g>
    </g>
    <g id="xtick_2">
     <g id="line2d_2">
      <g>
       <use xlink:href="#m1e5a782bea" x="87.164224" y="120.96399" style="stroke: #000000; stroke-width: 0.8"/>
      </g>
     </g>
     <g id="text_2">
      <!-- 2 -->
      <g transform="translate(83.982974 135.562428) scale(0.1 -0.1)">
       <defs>
        <path id="DejaVuSans-32" d="M 1228 531 
L 3431 531 
L 3431 0 
L 469 0 
L 469 531 
Q 828 903 1448 1529 
Q 2069 2156 2228 2338 
Q 2531 2678 2651 2914 
Q 2772 3150 2772 3378 
Q 2772 3750 2511 3984 
Q 2250 4219 1831 4219 
Q 1534 4219 1204 4116 
Q 875 4013 500 3803 
L 500 4441 
Q 881 4594 1212 4672 
Q 1544 4750 1819 4750 
Q 2544 4750 2975 4387 
Q 3406 4025 3406 3419 
Q 3406 3131 3298 2873 
Q 3191 2616 2906 2266 
Q 2828 2175 2409 1742 
Q 1991 1309 1228 531 
z
" transform="scale(0.015625)"/>
       </defs>
       <use xlink:href="#DejaVuSans-32"/>
      </g>
     </g>
    </g>
    <g id="xtick_3">
     <g id="line2d_3">
      <g>
       <use xlink:href="#m1e5a782bea" x="135.013727" y="120.96399" style="stroke: #000000; stroke-width: 0.8"/>
      </g>
     </g>
     <g id="text_3">
      <!-- 4 -->
      <g transform="translate(131.832477 135.562428) scale(0.1 -0.1)">
       <defs>
        <path id="DejaVuSans-34" d="M 2419 4116 
L 825 1625 
L 2419 1625 
L 2419 4116 
z
M 2253 4666 
L 3047 4666 
L 3047 1625 
L 3713 1625 
L 3713 1100 
L 3047 1100 
L 3047 0 
L 2419 0 
L 2419 1100 
L 313 1100 
L 313 1709 
L 2253 4666 
z
" transform="scale(0.015625)"/>
       </defs>
       <use xlink:href="#DejaVuSans-34"/>
      </g>
     </g>
    </g>
    <g id="text_4">
     <!-- ReproZip log overhead -->
     <g transform="translate(33.202344 149.240553) scale(0.1 -0.1)">
      <defs>
       <path id="DejaVuSans-52" d="M 2841 2188 
Q 3044 2119 3236 1894 
Q 3428 1669 3622 1275 
L 4263 0 
L 3584 0 
L 2988 1197 
Q 2756 1666 2539 1819 
Q 2322 1972 1947 1972 
L 1259 1972 
L 1259 0 
L 628 0 
L 628 4666 
L 2053 4666 
Q 2853 4666 3247 4331 
Q 3641 3997 3641 3322 
Q 3641 2881 3436 2590 
Q 3231 2300 2841 2188 
z
M 1259 4147 
L 1259 2491 
L 2053 2491 
Q 2509 2491 2742 2702 
Q 2975 2913 2975 3322 
Q 2975 3731 2742 3939 
Q 2509 4147 2053 4147 
L 1259 4147 
z
" transform="scale(0.015625)"/>
       <path id="DejaVuSans-65" d="M 3597 1894 
L 3597 1613 
L 953 1613 
Q 991 1019 1311 708 
Q 1631 397 2203 397 
Q 2534 397 2845 478 
Q 3156 559 3463 722 
L 3463 178 
Q 3153 47 2828 -22 
Q 2503 -91 2169 -91 
Q 1331 -91 842 396 
Q 353 884 353 1716 
Q 353 2575 817 3079 
Q 1281 3584 2069 3584 
Q 2775 3584 3186 3129 
Q 3597 2675 3597 1894 
z
M 3022 2063 
Q 3016 2534 2758 2815 
Q 2500 3097 2075 3097 
Q 1594 3097 1305 2825 
Q 1016 2553 972 2059 
L 3022 2063 
z
" transform="scale(0.015625)"/>
       <path id="DejaVuSans-70" d="M 1159 525 
L 1159 -1331 
L 581 -1331 
L 581 3500 
L 1159 3500 
L 1159 2969 
Q 1341 3281 1617 3432 
Q 1894 3584 2278 3584 
Q 2916 3584 3314 3078 
Q 3713 2572 3713 1747 
Q 3713 922 3314 415 
Q 2916 -91 2278 -91 
Q 1894 -91 1617 61 
Q 1341 213 1159 525 
z
M 3116 1747 
Q 3116 2381 2855 2742 
Q 2594 3103 2138 3103 
Q 1681 3103 1420 2742 
Q 1159 2381 1159 1747 
Q 1159 1113 1420 752 
Q 1681 391 2138 391 
Q 2594 391 2855 752 
Q 3116 1113 3116 1747 
z
" transform="scale(0.015625)"/>
       <path id="DejaVuSans-72" d="M 2631 2963 
Q 2534 3019 2420 3045 
Q 2306 3072 2169 3072 
Q 1681 3072 1420 2755 
Q 1159 2438 1159 1844 
L 1159 0 
L 581 0 
L 581 3500 
L 1159 3500 
L 1159 2956 
Q 1341 3275 1631 3429 
Q 1922 3584 2338 3584 
Q 2397 3584 2469 3576 
Q 2541 3569 2628 3553 
L 2631 2963 
z
" transform="scale(0.015625)"/>
       <path id="DejaVuSans-6f" d="M 1959 3097 
Q 1497 3097 1228 2736 
Q 959 2375 959 1747 
Q 959 1119 1226 758 
Q 1494 397 1959 397 
Q 2419 397 2687 759 
Q 2956 1122 2956 1747 
Q 2956 2369 2687 2733 
Q 2419 3097 1959 3097 
z
M 1959 3584 
Q 2709 3584 3137 3096 
Q 3566 2609 3566 1747 
Q 3566 888 3137 398 
Q 2709 -91 1959 -91 
Q 1206 -91 779 398 
Q 353 888 353 1747 
Q 353 2609 779 3096 
Q 1206 3584 1959 3584 
z
" transform="scale(0.015625)"/>
       <path id="DejaVuSans-5a" d="M 359 4666 
L 4025 4666 
L 4025 4184 
L 1075 531 
L 4097 531 
L 4097 0 
L 288 0 
L 288 481 
L 3238 4134 
L 359 4134 
L 359 4666 
z
" transform="scale(0.015625)"/>
       <path id="DejaVuSans-69" d="M 603 3500 
L 1178 3500 
L 1178 0 
L 603 0 
L 603 3500 
z
M 603 4863 
L 1178 4863 
L 1178 4134 
L 603 4134 
L 603 4863 
z
" transform="scale(0.015625)"/>
       <path id="DejaVuSans-20" transform="scale(0.015625)"/>
       <path id="DejaVuSans-6c" d="M 603 4863 
L 1178 4863 
L 1178 0 
L 603 0 
L 603 4863 
z
" transform="scale(0.015625)"/>
       <path id="DejaVuSans-67" d="M 2906 1791 
Q 2906 2416 2648 2759 
Q 2391 3103 1925 3103 
Q 1463 3103 1205 2759 
Q 947 2416 947 1791 
Q 947 1169 1205 825 
Q 1463 481 1925 481 
Q 2391 481 2648 825 
Q 2906 1169 2906 1791 
z
M 3481 434 
Q 3481 -459 3084 -895 
Q 2688 -1331 1869 -1331 
Q 1566 -1331 1297 -1286 
Q 1028 -1241 775 -1147 
L 775 -588 
Q 1028 -725 1275 -790 
Q 1522 -856 1778 -856 
Q 2344 -856 2625 -561 
Q 2906 -266 2906 331 
L 2906 616 
Q 2728 306 2450 153 
Q 2172 0 1784 0 
Q 1141 0 747 490 
Q 353 981 353 1791 
Q 353 2603 747 3093 
Q 1141 3584 1784 3584 
Q 2172 3584 2450 3431 
Q 2728 3278 2906 2969 
L 2906 3500 
L 3481 3500 
L 3481 434 
z
" transform="scale(0.015625)"/>
       <path id="DejaVuSans-76" d="M 191 3500 
L 800 3500 
L 1894 563 
L 2988 3500 
L 3597 3500 
L 2284 0 
L 1503 0 
L 191 3500 
z
" transform="scale(0.015625)"/>
       <path id="DejaVuSans-68" d="M 3513 2113 
L 3513 0 
L 2938 0 
L 2938 2094 
Q 2938 2591 2744 2837 
Q 2550 3084 2163 3084 
Q 1697 3084 1428 2787 
Q 1159 2491 1159 1978 
L 1159 0 
L 581 0 
L 581 4863 
L 1159 4863 
L 1159 2956 
Q 1366 3272 1645 3428 
Q 1925 3584 2291 3584 
Q 2894 3584 3203 3211 
Q 3513 2838 3513 2113 
z
" transform="scale(0.015625)"/>
       <path id="DejaVuSans-61" d="M 2194 1759 
Q 1497 1759 1228 1600 
Q 959 1441 959 1056 
Q 959 750 1161 570 
Q 1363 391 1709 391 
Q 2188 391 2477 730 
Q 2766 1069 2766 1631 
L 2766 1759 
L 2194 1759 
z
M 3341 1997 
L 3341 0 
L 2766 0 
L 2766 531 
Q 2569 213 2275 61 
Q 1981 -91 1556 -91 
Q 1019 -91 701 211 
Q 384 513 384 1019 
Q 384 1609 779 1909 
Q 1175 2209 1959 2209 
L 2766 2209 
L 2766 2266 
Q 2766 2663 2505 2880 
Q 2244 3097 1772 3097 
Q 1472 3097 1187 3025 
Q 903 2953 641 2809 
L 641 3341 
Q 956 3463 1253 3523 
Q 1550 3584 1831 3584 
Q 2591 3584 2966 3190 
Q 3341 2797 3341 1997 
z
" transform="scale(0.015625)"/>
       <path id="DejaVuSans-64" d="M 2906 2969 
L 2906 4863 
L 3481 4863 
L 3481 0 
L 2906 0 
L 2906 525 
Q 2725 213 2448 61 
Q 2172 -91 1784 -91 
Q 1150 -91 751 415 
Q 353 922 353 1747 
Q 353 2572 751 3078 
Q 1150 3584 1784 3584 
Q 2172 3584 2448 3432 
Q 2725 3281 2906 2969 
z
M 947 1747 
Q 947 1113 1208 752 
Q 1469 391 1925 391 
Q 2381 391 2643 752 
Q 2906 1113 2906 1747 
Q 2906 2381 2643 2742 
Q 2381 3103 1925 3103 
Q 1469 3103 1208 2742 
Q 947 2381 947 1747 
z
" transform="scale(0.015625)"/>
      </defs>
      <use xlink:href="#DejaVuSans-52"/>
      <use xlink:href="#DejaVuSans-65" x="64.982422"/>
      <use xlink:href="#DejaVuSans-70" x="126.505859"/>
      <use xlink:href="#DejaVuSans-72" x="189.982422"/>
      <use xlink:href="#DejaVuSans-6f" x="228.845703"/>
      <use xlink:href="#DejaVuSans-5a" x="290.027344"/>
      <use xlink:href="#DejaVuSans-69" x="358.533203"/>
      <use xlink:href="#DejaVuSans-70" x="386.316406"/>
      <use xlink:href="#DejaVuSans-20" x="449.792969"/>
      <use xlink:href="#DejaVuSans-6c" x="481.580078"/>
      <use xlink:href="#DejaVuSans-6f" x="509.363281"/>
      <use xlink:href="#DejaVuSans-67" x="570.544922"/>
      <use xlink:href="#DejaVuSans-20" x="634.021484"/>
      <use xlink:href="#DejaVuSans-6f" x="665.808594"/>
      <use xlink:href="#DejaVuSans-76" x="726.990234"/>
      <use xlink:href="#DejaVuSans-65" x="786.169922"/>
      <use xlink:href="#DejaVuSans-72" x="847.693359"/>
      <use xlink:href="#DejaVuSans-68" x="887.056641"/>
      <use xlink:href="#DejaVuSans-65" x="950.435547"/>
      <use xlink:href="#DejaVuSans-61" x="1011.958984"/>
      <use xlink:href="#DejaVuSans-64" x="1073.238281"/>
     </g>
    </g>
   </g>
   <g id="matplotlib.axis_2">
    <g id="ytick_1">
     <g id="line2d_4">
      <defs>
       <path id="m2fc41b87da" d="M 0 0 
L -3.5 0 
" style="stroke: #000000; stroke-width: 0.8"/>
      </defs>
      <g>
       <use xlink:href="#m2fc41b87da" x="34.240625" y="114.694604" style="stroke: #000000; stroke-width: 0.8"/>
      </g>
     </g>
     <g id="text_5">
      <!-- 0 -->
      <g transform="translate(20.878125 118.493823) scale(0.1 -0.1)">
       <use xlink:href="#DejaVuSans-30"/>
      </g>
     </g>
    </g>
    <g id="ytick_2">
     <g id="line2d_5">
      <g>
       <use xlink:href="#m2fc41b87da" x="34.240625" y="88.770758" style="stroke: #000000; stroke-width: 0.8"/>
      </g>
     </g>
     <g id="text_6">
      <!-- 1 -->
      <g transform="translate(20.878125 92.569977) scale(0.1 -0.1)">
       <defs>
        <path id="DejaVuSans-31" d="M 794 531 
L 1825 531 
L 1825 4091 
L 703 3866 
L 703 4441 
L 1819 4666 
L 2450 4666 
L 2450 531 
L 3481 531 
L 3481 0 
L 794 0 
L 794 531 
z
" transform="scale(0.015625)"/>
       </defs>
       <use xlink:href="#DejaVuSans-31"/>
      </g>
     </g>
    </g>
    <g id="ytick_3">
     <g id="line2d_6">
      <g>
       <use xlink:href="#m2fc41b87da" x="34.240625" y="62.846912" style="stroke: #000000; stroke-width: 0.8"/>
      </g>
     </g>
     <g id="text_7">
      <!-- 2 -->
      <g transform="translate(20.878125 66.64613) scale(0.1 -0.1)">
       <use xlink:href="#DejaVuSans-32"/>
      </g>
     </g>
    </g>
    <g id="ytick_4">
     <g id="line2d_7">
      <g>
       <use xlink:href="#m2fc41b87da" x="34.240625" y="36.923065" style="stroke: #000000; stroke-width: 0.8"/>
      </g>
     </g>
     <g id="text_8">
      <!-- 3 -->
      <g transform="translate(20.878125 40.722284) scale(0.1 -0.1)">
       <defs>
        <path id="DejaVuSans-33" d="M 2597 2516 
Q 3050 2419 3304 2112 
Q 3559 1806 3559 1356 
Q 3559 666 3084 287 
Q 2609 -91 1734 -91 
Q 1441 -91 1130 -33 
Q 819 25 488 141 
L 488 750 
Q 750 597 1062 519 
Q 1375 441 1716 441 
Q 2309 441 2620 675 
Q 2931 909 2931 1356 
Q 2931 1769 2642 2001 
Q 2353 2234 1838 2234 
L 1294 2234 
L 1294 2753 
L 1863 2753 
Q 2328 2753 2575 2939 
Q 2822 3125 2822 3475 
Q 2822 3834 2567 4026 
Q 2313 4219 1838 4219 
Q 1578 4219 1281 4162 
Q 984 4106 628 3988 
L 628 4550 
Q 988 4650 1302 4700 
Q 1616 4750 1894 4750 
Q 2613 4750 3031 4423 
Q 3450 4097 3450 3541 
Q 3450 3153 3228 2886 
Q 3006 2619 2597 2516 
z
" transform="scale(0.015625)"/>
       </defs>
       <use xlink:href="#DejaVuSans-33"/>
      </g>
     </g>
    </g>
    <g id="ytick_5">
     <g id="line2d_8">
      <g>
       <use xlink:href="#m2fc41b87da" x="34.240625" y="10.999219" style="stroke: #000000; stroke-width: 0.8"/>
      </g>
     </g>
     <g id="text_9">
      <!-- 4 -->
      <g transform="translate(20.878125 14.798437) scale(0.1 -0.1)">
       <use xlink:href="#DejaVuSans-34"/>
      </g>
     </g>
    </g>
    <g id="text_10">
     <!-- RR log overhead -->
     <g transform="translate(14.798438 106.820084) rotate(-90) scale(0.1 -0.1)">
      <use xlink:href="#DejaVuSans-52"/>
      <use xlink:href="#DejaVuSans-52" x="69.482422"/>
      <use xlink:href="#DejaVuSans-20" x="138.964844"/>
      <use xlink:href="#DejaVuSans-6c" x="170.751953"/>
      <use xlink:href="#DejaVuSans-6f" x="198.535156"/>
      <use xlink:href="#DejaVuSans-67" x="259.716797"/>
      <use xlink:href="#DejaVuSans-20" x="323.193359"/>
      <use xlink:href="#DejaVuSans-6f" x="354.980469"/>
      <use xlink:href="#DejaVuSans-76" x="416.162109"/>
      <use xlink:href="#DejaVuSans-65" x="475.341797"/>
      <use xlink:href="#DejaVuSans-72" x="536.865234"/>
      <use xlink:href="#DejaVuSans-68" x="576.228516"/>
      <use xlink:href="#DejaVuSans-65" x="639.607422"/>
      <use xlink:href="#DejaVuSans-61" x="701.130859"/>
      <use xlink:href="#DejaVuSans-64" x="762.410156"/>
     </g>
    </g>
   </g>
   <g id="line2d_9">
    <path d="M 44.848967 63.530955 
" clip-path="url(#p6c5ec2465f)" style="fill: none; stroke: #aec7e8; stroke-width: 1.5; stroke-linecap: square"/>
    <defs>
     <path id="md9078717f1" d="M 0 1.5 
C 0.397805 1.5 0.77937 1.341951 1.06066 1.06066 
C 1.341951 0.77937 1.5 0.397805 1.5 0 
C 1.5 -0.397805 1.341951 -0.77937 1.06066 -1.06066 
C 0.77937 -1.341951 0.397805 -1.5 0 -1.5 
C -0.397805 -1.5 -0.77937 -1.341951 -1.06066 -1.06066 
C -1.341951 -0.77937 -1.5 -0.397805 -1.5 0 
C -1.5 0.397805 -1.341951 0.77937 -1.06066 1.06066 
C -0.77937 1.341951 -0.397805 1.5 0 1.5 
z
" style="stroke: #aec7e8"/>
    </defs>
    <g clip-path="url(#p6c5ec2465f)">
     <use xlink:href="#md9078717f1" x="44.848967" y="63.530955" style="fill: #aec7e8; stroke: #aec7e8"/>
    </g>
   </g>
   <g id="line2d_10">
    <path d="M 41.592881 89.332065 
" clip-path="url(#p6c5ec2465f)" style="fill: none; stroke: #aec7e8; stroke-width: 1.5; stroke-linecap: square"/>
    <g clip-path="url(#p6c5ec2465f)">
     <use xlink:href="#md9078717f1" x="41.592881" y="89.332065" style="fill: #aec7e8; stroke: #aec7e8"/>
    </g>
   </g>
   <g id="line2d_11">
    <path d="M 39.90005 108.23501 
" clip-path="url(#p6c5ec2465f)" style="fill: none; stroke: #98df8a; stroke-width: 1.5; stroke-linecap: square"/>
    <defs>
     <path id="mbecd668192" d="M 0 1.5 
C 0.397805 1.5 0.77937 1.341951 1.06066 1.06066 
C 1.341951 0.77937 1.5 0.397805 1.5 0 
C 1.5 -0.397805 1.341951 -0.77937 1.06066 -1.06066 
C 0.77937 -1.341951 0.397805 -1.5 0 -1.5 
C -0.397805 -1.5 -0.77937 -1.341951 -1.06066 -1.06066 
C -1.341951 -0.77937 -1.5 -0.397805 -1.5 0 
C -1.5 0.397805 -1.341951 0.77937 -1.06066 1.06066 
C -0.77937 1.341951 -0.397805 1.5 0 1.5 
z
" style="stroke: #98df8a"/>
    </defs>
    <g clip-path="url(#p6c5ec2465f)">
     <use xlink:href="#mbecd668192" x="39.90005" y="108.23501" style="fill: #98df8a; stroke: #98df8a"/>
    </g>
   </g>
   <g id="line2d_12">
    <path d="M 40.954519 103.152954 
" clip-path="url(#p6c5ec2465f)" style="fill: none; stroke: #98df8a; stroke-width: 1.5; stroke-linecap: square"/>
    <g clip-path="url(#p6c5ec2465f)">
     <use xlink:href="#mbecd668192" x="40.954519" y="103.152954" style="fill: #98df8a; stroke: #98df8a"/>
    </g>
   </g>
   <g id="line2d_13">
    <path d="M 39.399466 108.164531 
" clip-path="url(#p6c5ec2465f)" style="fill: none; stroke: #98df8a; stroke-width: 1.5; stroke-linecap: square"/>
    <g clip-path="url(#p6c5ec2465f)">
     <use xlink:href="#mbecd668192" x="39.399466" y="108.164531" style="fill: #98df8a; stroke: #98df8a"/>
    </g>
   </g>
   <g id="line2d_14">
    <path d="M 39.635463 113.202943 
" clip-path="url(#p6c5ec2465f)" style="fill: none; stroke: #98df8a; stroke-width: 1.5; stroke-linecap: square"/>
    <g clip-path="url(#p6c5ec2465f)">
     <use xlink:href="#mbecd668192" x="39.635463" y="113.202943" style="fill: #98df8a; stroke: #98df8a"/>
    </g>
   </g>
   <g id="line2d_15">
    <path d="M 45.351478 105.091887 
" clip-path="url(#p6c5ec2465f)" style="fill: none; stroke: #98df8a; stroke-width: 1.5; stroke-linecap: square"/>
    <g clip-path="url(#p6c5ec2465f)">
     <use xlink:href="#mbecd668192" x="45.351478" y="105.091887" style="fill: #98df8a; stroke: #98df8a"/>
    </g>
   </g>
   <g id="line2d_16">
    <path d="M 124.382797 74.995066 
" clip-path="url(#p6c5ec2465f)" style="fill: none; stroke: #ff9896; stroke-width: 1.5; stroke-linecap: square"/>
    <defs>
     <path id="m841668c98f" d="M 0 1.5 
C 0.397805 1.5 0.77937 1.341951 1.06066 1.06066 
C 1.341951 0.77937 1.5 0.397805 1.5 0 
C 1.5 -0.397805 1.341951 -0.77937 1.06066 -1.06066 
C 0.77937 -1.341951 0.397805 -1.5 0 -1.5 
C -0.397805 -1.5 -0.77937 -1.341951 -1.06066 -1.06066 
C -1.341951 -0.77937 -1.5 -0.397805 -1.5 0 
C -1.5 0.397805 -1.341951 0.77937 -1.06066 1.06066 
C -0.77937 1.341951 -0.397805 1.5 0 1.5 
z
" style="stroke: #ff9896"/>
    </defs>
    <g clip-path="url(#p6c5ec2465f)">
     <use xlink:href="#m841668c98f" x="124.382797" y="74.995066" style="fill: #ff9896; stroke: #ff9896"/>
    </g>
   </g>
   <g id="line2d_17">
    <path d="M 39.560767 114.764762 
" clip-path="url(#p6c5ec2465f)" style="fill: none; stroke: #98df8a; stroke-width: 1.5; stroke-linecap: square"/>
    <g clip-path="url(#p6c5ec2465f)">
     <use xlink:href="#mbecd668192" x="39.560767" y="114.764762" style="fill: #98df8a; stroke: #98df8a"/>
    </g>
   </g>
   <g id="line2d_18">
    <path d="M 44.611424 105.812099 
" clip-path="url(#p6c5ec2465f)" style="fill: none; stroke: #98df8a; stroke-width: 1.5; stroke-linecap: square"/>
    <g clip-path="url(#p6c5ec2465f)">
     <use xlink:href="#mbecd668192" x="44.611424" y="105.812099" style="fill: #98df8a; stroke: #98df8a"/>
    </g>
   </g>
   <g id="line2d_19">
    <path d="M 45.925676 111.31695 
" clip-path="url(#p6c5ec2465f)" style="fill: none; stroke: #98df8a; stroke-width: 1.5; stroke-linecap: square"/>
    <g clip-path="url(#p6c5ec2465f)">
     <use xlink:href="#mbecd668192" x="45.925676" y="111.31695" style="fill: #98df8a; stroke: #98df8a"/>
    </g>
   </g>
   <g id="line2d_20">
    <path d="M 39.935245 110.711025 
" clip-path="url(#p6c5ec2465f)" style="fill: none; stroke: #98df8a; stroke-width: 1.5; stroke-linecap: square"/>
    <g clip-path="url(#p6c5ec2465f)">
     <use xlink:href="#mbecd668192" x="39.935245" y="110.711025" style="fill: #98df8a; stroke: #98df8a"/>
    </g>
   </g>
   <g id="line2d_21">
    <path d="M 39.738395 114.775588 
" clip-path="url(#p6c5ec2465f)" style="fill: none; stroke: #98df8a; stroke-width: 1.5; stroke-linecap: square"/>
    <g clip-path="url(#p6c5ec2465f)">
     <use xlink:href="#mbecd668192" x="39.738395" y="114.775588" style="fill: #98df8a; stroke: #98df8a"/>
    </g>
   </g>
   <g id="line2d_22">
    <path d="M 62.701448 87.817855 
" clip-path="url(#p6c5ec2465f)" style="fill: none; stroke: #aec7e8; stroke-width: 1.5; stroke-linecap: square"/>
    <g clip-path="url(#p6c5ec2465f)">
     <use xlink:href="#md9078717f1" x="62.701448" y="87.817855" style="fill: #aec7e8; stroke: #aec7e8"/>
    </g>
   </g>
   <g id="line2d_23">
    <path d="M 45.493789 103.960585 
" clip-path="url(#p6c5ec2465f)" style="fill: none; stroke: #98df8a; stroke-width: 1.5; stroke-linecap: square"/>
    <g clip-path="url(#p6c5ec2465f)">
     <use xlink:href="#mbecd668192" x="45.493789" y="103.960585" style="fill: #98df8a; stroke: #98df8a"/>
    </g>
   </g>
   <g id="line2d_24">
    <path d="M 39.684448 114.303565 
" clip-path="url(#p6c5ec2465f)" style="fill: none; stroke: #98df8a; stroke-width: 1.5; stroke-linecap: square"/>
    <g clip-path="url(#p6c5ec2465f)">
     <use xlink:href="#mbecd668192" x="39.684448" y="114.303565" style="fill: #98df8a; stroke: #98df8a"/>
    </g>
   </g>
   <g id="line2d_25">
    <path d="M 70.762655 69.748663 
" clip-path="url(#p6c5ec2465f)" style="fill: none; stroke: #e377c2; stroke-width: 1.5; stroke-linecap: square"/>
    <defs>
     <path id="m40cb4bd3b4" d="M 0 1.5 
C 0.397805 1.5 0.77937 1.341951 1.06066 1.06066 
C 1.341951 0.77937 1.5 0.397805 1.5 0 
C 1.5 -0.397805 1.341951 -0.77937 1.06066 -1.06066 
C 0.77937 -1.341951 0.397805 -1.5 0 -1.5 
C -0.397805 -1.5 -0.77937 -1.341951 -1.06066 -1.06066 
C -1.341951 -0.77937 -1.5 -0.397805 -1.5 0 
C -1.5 0.397805 -1.341951 0.77937 -1.06066 1.06066 
C -0.77937 1.341951 -0.397805 1.5 0 1.5 
z
" style="stroke: #e377c2"/>
    </defs>
    <g clip-path="url(#p6c5ec2465f)">
     <use xlink:href="#m40cb4bd3b4" x="70.762655" y="69.748663" style="fill: #e377c2; stroke: #e377c2"/>
    </g>
   </g>
   <g id="line2d_26">
    <path d="M 78.352206 69.430786 
" clip-path="url(#p6c5ec2465f)" style="fill: none; stroke: #e377c2; stroke-width: 1.5; stroke-linecap: square"/>
    <g clip-path="url(#p6c5ec2465f)">
     <use xlink:href="#m40cb4bd3b4" x="78.352206" y="69.430786" style="fill: #e377c2; stroke: #e377c2"/>
    </g>
   </g>
   <g id="line2d_27">
    <path d="M 75.473766 76.680601 
" clip-path="url(#p6c5ec2465f)" style="fill: none; stroke: #ff9896; stroke-width: 1.5; stroke-linecap: square"/>
    <g clip-path="url(#p6c5ec2465f)">
     <use xlink:href="#m841668c98f" x="75.473766" y="76.680601" style="fill: #ff9896; stroke: #ff9896"/>
    </g>
   </g>
   <g id="line2d_28">
    <path d="M 74.481869 78.140703 
" clip-path="url(#p6c5ec2465f)" style="fill: none; stroke: #ff9896; stroke-width: 1.5; stroke-linecap: square"/>
    <g clip-path="url(#p6c5ec2465f)">
     <use xlink:href="#m841668c98f" x="74.481869" y="78.140703" style="fill: #ff9896; stroke: #ff9896"/>
    </g>
   </g>
   <g id="line2d_29">
    <path d="M 73.772712 110.15168 
" clip-path="url(#p6c5ec2465f)" style="fill: none; stroke: #aec7e8; stroke-width: 1.5; stroke-linecap: square"/>
    <g clip-path="url(#p6c5ec2465f)">
     <use xlink:href="#md9078717f1" x="73.772712" y="110.15168" style="fill: #aec7e8; stroke: #aec7e8"/>
    </g>
   </g>
   <g id="line2d_30">
    <path d="M 69.722734 108.593536 
" clip-path="url(#p6c5ec2465f)" style="fill: none; stroke: #aec7e8; stroke-width: 1.5; stroke-linecap: square"/>
    <g clip-path="url(#p6c5ec2465f)">
     <use xlink:href="#md9078717f1" x="69.722734" y="108.593536" style="fill: #aec7e8; stroke: #aec7e8"/>
    </g>
   </g>
   <g id="line2d_31">
    <path d="M 74.035499 111.559116 
" clip-path="url(#p6c5ec2465f)" style="fill: none; stroke: #aec7e8; stroke-width: 1.5; stroke-linecap: square"/>
    <g clip-path="url(#p6c5ec2465f)">
     <use xlink:href="#md9078717f1" x="74.035499" y="111.559116" style="fill: #aec7e8; stroke: #aec7e8"/>
    </g>
   </g>
   <g id="line2d_32">
    <path d="M 54.164754 110.7169 
" clip-path="url(#p6c5ec2465f)" style="fill: none; stroke: #98df8a; stroke-width: 1.5; stroke-linecap: square"/>
    <g clip-path="url(#p6c5ec2465f)">
     <use xlink:href="#mbecd668192" x="54.164754" y="110.7169" style="fill: #98df8a; stroke: #98df8a"/>
    </g>
   </g>
   <g id="line2d_33">
    <path d="M 61.993279 107.333067 
" clip-path="url(#p6c5ec2465f)" style="fill: none; stroke: #aec7e8; stroke-width: 1.5; stroke-linecap: square"/>
    <g clip-path="url(#p6c5ec2465f)">
     <use xlink:href="#md9078717f1" x="61.993279" y="107.333067" style="fill: #aec7e8; stroke: #aec7e8"/>
    </g>
   </g>
   <g id="line2d_34">
    <path d="M 73.141658 85.549109 
" clip-path="url(#p6c5ec2465f)" style="fill: none; stroke: #aec7e8; stroke-width: 1.5; stroke-linecap: square"/>
    <g clip-path="url(#p6c5ec2465f)">
     <use xlink:href="#md9078717f1" x="73.141658" y="85.549109" style="fill: #aec7e8; stroke: #aec7e8"/>
    </g>
   </g>
   <g id="line2d_35">
    <path d="M 77.03346 96.234795 
" clip-path="url(#p6c5ec2465f)" style="fill: none; stroke: #aec7e8; stroke-width: 1.5; stroke-linecap: square"/>
    <g clip-path="url(#p6c5ec2465f)">
     <use xlink:href="#md9078717f1" x="77.03346" y="96.234795" style="fill: #aec7e8; stroke: #aec7e8"/>
    </g>
   </g>
   <g id="line2d_36">
    <path d="M 43.0898 113.703781 
" clip-path="url(#p6c5ec2465f)" style="fill: none; stroke: #98df8a; stroke-width: 1.5; stroke-linecap: square"/>
    <g clip-path="url(#p6c5ec2465f)">
     <use xlink:href="#mbecd668192" x="43.0898" y="113.703781" style="fill: #98df8a; stroke: #98df8a"/>
    </g>
   </g>
   <g id="line2d_37">
    <path d="M 43.30018 113.540728 
" clip-path="url(#p6c5ec2465f)" style="fill: none; stroke: #98df8a; stroke-width: 1.5; stroke-linecap: square"/>
    <g clip-path="url(#p6c5ec2465f)">
     <use xlink:href="#mbecd668192" x="43.30018" y="113.540728" style="fill: #98df8a; stroke: #98df8a"/>
    </g>
   </g>
   <g id="line2d_38">
    <path d="M 43.312138 112.924327 
" clip-path="url(#p6c5ec2465f)" style="fill: none; stroke: #98df8a; stroke-width: 1.5; stroke-linecap: square"/>
    <g clip-path="url(#p6c5ec2465f)">
     <use xlink:href="#mbecd668192" x="43.312138" y="112.924327" style="fill: #98df8a; stroke: #98df8a"/>
    </g>
   </g>
   <g id="line2d_39">
    <path d="M 67.787481 90.044778 
" clip-path="url(#p6c5ec2465f)" style="fill: none; stroke: #aec7e8; stroke-width: 1.5; stroke-linecap: square"/>
    <g clip-path="url(#p6c5ec2465f)">
     <use xlink:href="#md9078717f1" x="67.787481" y="90.044778" style="fill: #aec7e8; stroke: #aec7e8"/>
    </g>
   </g>
   <g id="line2d_40">
    <path d="M 70.468925 88.877706 
" clip-path="url(#p6c5ec2465f)" style="fill: none; stroke: #aec7e8; stroke-width: 1.5; stroke-linecap: square"/>
    <g clip-path="url(#p6c5ec2465f)">
     <use xlink:href="#md9078717f1" x="70.468925" y="88.877706" style="fill: #aec7e8; stroke: #aec7e8"/>
    </g>
   </g>
   <g id="line2d_41">
    <path d="M 109.118312 17.573065 
" clip-path="url(#p6c5ec2465f)" style="fill: none; stroke: #f7b6d2; stroke-width: 1.5; stroke-linecap: square"/>
    <defs>
     <path id="mbc9cf988d3" d="M 0 1.5 
C 0.397805 1.5 0.77937 1.341951 1.06066 1.06066 
C 1.341951 0.77937 1.5 0.397805 1.5 0 
C 1.5 -0.397805 1.341951 -0.77937 1.06066 -1.06066 
C 0.77937 -1.341951 0.397805 -1.5 0 -1.5 
C -0.397805 -1.5 -0.77937 -1.341951 -1.06066 -1.06066 
C -1.341951 -0.77937 -1.5 -0.397805 -1.5 0 
C -1.5 0.397805 -1.341951 0.77937 -1.06066 1.06066 
C -0.77937 1.341951 -0.397805 1.5 0 1.5 
z
" style="stroke: #f7b6d2"/>
    </defs>
    <g clip-path="url(#p6c5ec2465f)">
     <use xlink:href="#mbc9cf988d3" x="109.118312" y="17.573065" style="fill: #f7b6d2; stroke: #f7b6d2"/>
    </g>
   </g>
   <g id="line2d_42">
    <path d="M 91.682431 65.995346 
" clip-path="url(#p6c5ec2465f)" style="fill: none; stroke: #ff7f0e; stroke-width: 1.5; stroke-linecap: square"/>
    <defs>
     <path id="m72de625cd5" d="M 0 1.5 
C 0.397805 1.5 0.77937 1.341951 1.06066 1.06066 
C 1.341951 0.77937 1.5 0.397805 1.5 0 
C 1.5 -0.397805 1.341951 -0.77937 1.06066 -1.06066 
C 0.77937 -1.341951 0.397805 -1.5 0 -1.5 
C -0.397805 -1.5 -0.77937 -1.341951 -1.06066 -1.06066 
C -1.341951 -0.77937 -1.5 -0.397805 -1.5 0 
C -1.5 0.397805 -1.341951 0.77937 -1.06066 1.06066 
C -0.77937 1.341951 -0.397805 1.5 0 1.5 
z
" style="stroke: #ff7f0e"/>
    </defs>
    <g clip-path="url(#p6c5ec2465f)">
     <use xlink:href="#m72de625cd5" x="91.682431" y="65.995346" style="fill: #ff7f0e; stroke: #ff7f0e"/>
    </g>
   </g>
   <g id="line2d_43">
    <path d="M 58.316371 110.51688 
" clip-path="url(#p6c5ec2465f)" style="fill: none; stroke: #98df8a; stroke-width: 1.5; stroke-linecap: square"/>
    <g clip-path="url(#p6c5ec2465f)">
     <use xlink:href="#mbecd668192" x="58.316371" y="110.51688" style="fill: #98df8a; stroke: #98df8a"/>
    </g>
   </g>
   <g id="line2d_44">
    <path d="M 105.575664 15.12399 
" clip-path="url(#p6c5ec2465f)" style="fill: none; stroke: #c49c94; stroke-width: 1.5; stroke-linecap: square"/>
    <defs>
     <path id="m50dc6e3333" d="M 0 1.5 
C 0.397805 1.5 0.77937 1.341951 1.06066 1.06066 
C 1.341951 0.77937 1.5 0.397805 1.5 0 
C 1.5 -0.397805 1.341951 -0.77937 1.06066 -1.06066 
C 0.77937 -1.341951 0.397805 -1.5 0 -1.5 
C -0.397805 -1.5 -0.77937 -1.341951 -1.06066 -1.06066 
C -1.341951 -0.77937 -1.5 -0.397805 -1.5 0 
C -1.5 0.397805 -1.341951 0.77937 -1.06066 1.06066 
C -0.77937 1.341951 -0.397805 1.5 0 1.5 
z
" style="stroke: #c49c94"/>
    </defs>
    <g clip-path="url(#p6c5ec2465f)">
     <use xlink:href="#m50dc6e3333" x="105.575664" y="15.12399" style="fill: #c49c94; stroke: #c49c94"/>
    </g>
   </g>
   <g id="line2d_45">
    <path d="M 84.15651 25.82679 
" clip-path="url(#p6c5ec2465f)" style="fill: none; stroke: #c5b0d5; stroke-width: 1.5; stroke-linecap: square"/>
    <defs>
     <path id="m9bbc9123e3" d="M 0 1.5 
C 0.397805 1.5 0.77937 1.341951 1.06066 1.06066 
C 1.341951 0.77937 1.5 0.397805 1.5 0 
C 1.5 -0.397805 1.341951 -0.77937 1.06066 -1.06066 
C 0.77937 -1.341951 0.397805 -1.5 0 -1.5 
C -0.397805 -1.5 -0.77937 -1.341951 -1.06066 -1.06066 
C -1.341951 -0.77937 -1.5 -0.397805 -1.5 0 
C -1.5 0.397805 -1.341951 0.77937 -1.06066 1.06066 
C -0.77937 1.341951 -0.397805 1.5 0 1.5 
z
" style="stroke: #c5b0d5"/>
    </defs>
    <g clip-path="url(#p6c5ec2465f)">
     <use xlink:href="#m9bbc9123e3" x="84.15651" y="25.82679" style="fill: #c5b0d5; stroke: #c5b0d5"/>
    </g>
   </g>
   <g id="line2d_46">
    <path d="M 40.754366 114.012718 
" clip-path="url(#p6c5ec2465f)" style="fill: none; stroke: #98df8a; stroke-width: 1.5; stroke-linecap: square"/>
    <g clip-path="url(#p6c5ec2465f)">
     <use xlink:href="#mbecd668192" x="40.754366" y="114.012718" style="fill: #98df8a; stroke: #98df8a"/>
    </g>
   </g>
   <g id="line2d_47">
    <path d="M 39.313352 115.505764 
" clip-path="url(#p6c5ec2465f)" style="fill: none; stroke: #98df8a; stroke-width: 1.5; stroke-linecap: square"/>
    <g clip-path="url(#p6c5ec2465f)">
     <use xlink:href="#mbecd668192" x="39.313352" y="115.505764" style="fill: #98df8a; stroke: #98df8a"/>
    </g>
   </g>
   <g id="line2d_48">
    <path d="M 40.793148 113.77661 
" clip-path="url(#p6c5ec2465f)" style="fill: none; stroke: #98df8a; stroke-width: 1.5; stroke-linecap: square"/>
    <g clip-path="url(#p6c5ec2465f)">
     <use xlink:href="#mbecd668192" x="40.793148" y="113.77661" style="fill: #98df8a; stroke: #98df8a"/>
    </g>
   </g>
   <g id="line2d_49">
    <path d="M 40.479228 113.04717 
" clip-path="url(#p6c5ec2465f)" style="fill: none; stroke: #98df8a; stroke-width: 1.5; stroke-linecap: square"/>
    <g clip-path="url(#p6c5ec2465f)">
     <use xlink:href="#mbecd668192" x="40.479228" y="113.04717" style="fill: #98df8a; stroke: #98df8a"/>
    </g>
   </g>
   <g id="line2d_50">
    <path d="M 43.096027 114.225642 
" clip-path="url(#p6c5ec2465f)" style="fill: none; stroke: #d62728; stroke-width: 1.5; stroke-linecap: square"/>
    <defs>
     <path id="me1ef1d352e" d="M 0 1.5 
C 0.397805 1.5 0.77937 1.341951 1.06066 1.06066 
C 1.341951 0.77937 1.5 0.397805 1.5 0 
C 1.5 -0.397805 1.341951 -0.77937 1.06066 -1.06066 
C 0.77937 -1.341951 0.397805 -1.5 0 -1.5 
C -0.397805 -1.5 -0.77937 -1.341951 -1.06066 -1.06066 
C -1.341951 -0.77937 -1.5 -0.397805 -1.5 0 
C -1.5 0.397805 -1.341951 0.77937 -1.06066 1.06066 
C -0.77937 1.341951 -0.397805 1.5 0 1.5 
z
" style="stroke: #d62728"/>
    </defs>
    <g clip-path="url(#p6c5ec2465f)">
     <use xlink:href="#me1ef1d352e" x="43.096027" y="114.225642" style="fill: #d62728; stroke: #d62728"/>
    </g>
   </g>
   <g id="line2d_51">
    <path d="M 44.639859 114.09685 
" clip-path="url(#p6c5ec2465f)" style="fill: none; stroke: #9467bd; stroke-width: 1.5; stroke-linecap: square"/>
    <defs>
     <path id="mc8f49188c2" d="M 0 1.5 
C 0.397805 1.5 0.77937 1.341951 1.06066 1.06066 
C 1.341951 0.77937 1.5 0.397805 1.5 0 
C 1.5 -0.397805 1.341951 -0.77937 1.06066 -1.06066 
C 0.77937 -1.341951 0.397805 -1.5 0 -1.5 
C -0.397805 -1.5 -0.77937 -1.341951 -1.06066 -1.06066 
C -1.341951 -0.77937 -1.5 -0.397805 -1.5 0 
C -1.5 0.397805 -1.341951 0.77937 -1.06066 1.06066 
C -0.77937 1.341951 -0.397805 1.5 0 1.5 
z
" style="stroke: #9467bd"/>
    </defs>
    <g clip-path="url(#p6c5ec2465f)">
     <use xlink:href="#mc8f49188c2" x="44.639859" y="114.09685" style="fill: #9467bd; stroke: #9467bd"/>
    </g>
   </g>
   <g id="line2d_52">
    <path d="M 56.001568 102.714565 
" clip-path="url(#p6c5ec2465f)" style="fill: none; stroke: #aec7e8; stroke-width: 1.5; stroke-linecap: square"/>
    <g clip-path="url(#p6c5ec2465f)">
     <use xlink:href="#md9078717f1" x="56.001568" y="102.714565" style="fill: #aec7e8; stroke: #aec7e8"/>
    </g>
   </g>
   <g id="line2d_53">
    <path d="M 40.963918 113.821583 
" clip-path="url(#p6c5ec2465f)" style="fill: none; stroke: #aec7e8; stroke-width: 1.5; stroke-linecap: square"/>
    <g clip-path="url(#p6c5ec2465f)">
     <use xlink:href="#md9078717f1" x="40.963918" y="113.821583" style="fill: #aec7e8; stroke: #aec7e8"/>
    </g>
   </g>
   <g id="line2d_54">
    <path d="M 40.673997 114.22489 
" clip-path="url(#p6c5ec2465f)" style="fill: none; stroke: #98df8a; stroke-width: 1.5; stroke-linecap: square"/>
    <g clip-path="url(#p6c5ec2465f)">
     <use xlink:href="#mbecd668192" x="40.673997" y="114.22489" style="fill: #98df8a; stroke: #98df8a"/>
    </g>
   </g>
   <g id="line2d_55">
    <path d="M 40.732838 113.226354 
" clip-path="url(#p6c5ec2465f)" style="fill: none; stroke: #98df8a; stroke-width: 1.5; stroke-linecap: square"/>
    <g clip-path="url(#p6c5ec2465f)">
     <use xlink:href="#mbecd668192" x="40.732838" y="113.226354" style="fill: #98df8a; stroke: #98df8a"/>
    </g>
   </g>
   <g id="line2d_56">
    <path d="M 40.922263 106.619242 
" clip-path="url(#p6c5ec2465f)" style="fill: none; stroke: #98df8a; stroke-width: 1.5; stroke-linecap: square"/>
    <g clip-path="url(#p6c5ec2465f)">
     <use xlink:href="#mbecd668192" x="40.922263" y="106.619242" style="fill: #98df8a; stroke: #98df8a"/>
    </g>
   </g>
   <g id="line2d_57">
    <path d="M 83.885005 115.133789 
" clip-path="url(#p6c5ec2465f)" style="fill: none; stroke: #8c564b; stroke-width: 1.5; stroke-linecap: square"/>
    <defs>
     <path id="m3c0963e4ab" d="M 0 1.5 
C 0.397805 1.5 0.77937 1.341951 1.06066 1.06066 
C 1.341951 0.77937 1.5 0.397805 1.5 0 
C 1.5 -0.397805 1.341951 -0.77937 1.06066 -1.06066 
C 0.77937 -1.341951 0.397805 -1.5 0 -1.5 
C -0.397805 -1.5 -0.77937 -1.341951 -1.06066 -1.06066 
C -1.341951 -0.77937 -1.5 -0.397805 -1.5 0 
C -1.5 0.397805 -1.341951 0.77937 -1.06066 1.06066 
C -0.77937 1.341951 -0.397805 1.5 0 1.5 
z
" style="stroke: #8c564b"/>
    </defs>
    <g clip-path="url(#p6c5ec2465f)">
     <use xlink:href="#m3c0963e4ab" x="83.885005" y="115.133789" style="fill: #8c564b; stroke: #8c564b"/>
    </g>
   </g>
   <g id="line2d_58">
    <path d="M 39.903317 95.589967 
" clip-path="url(#p6c5ec2465f)" style="fill: none; stroke: #aec7e8; stroke-width: 1.5; stroke-linecap: square"/>
    <g clip-path="url(#p6c5ec2465f)">
     <use xlink:href="#md9078717f1" x="39.903317" y="95.589967" style="fill: #aec7e8; stroke: #aec7e8"/>
    </g>
   </g>
   <g id="line2d_59">
    <path d="M 40.13493 111.534695 
" clip-path="url(#p6c5ec2465f)" style="fill: none; stroke: #98df8a; stroke-width: 1.5; stroke-linecap: square"/>
    <g clip-path="url(#p6c5ec2465f)">
     <use xlink:href="#mbecd668192" x="40.13493" y="111.534695" style="fill: #98df8a; stroke: #98df8a"/>
    </g>
   </g>
   <g id="line2d_60">
    <path d="M 40.282547 115.92399 
" clip-path="url(#p6c5ec2465f)" style="fill: none; stroke: #98df8a; stroke-width: 1.5; stroke-linecap: square"/>
    <g clip-path="url(#p6c5ec2465f)">
     <use xlink:href="#mbecd668192" x="40.282547" y="115.92399" style="fill: #98df8a; stroke: #98df8a"/>
    </g>
   </g>
   <g id="line2d_61">
    <path d="M 41.289822 112.711703 
" clip-path="url(#p6c5ec2465f)" style="fill: none; stroke: #98df8a; stroke-width: 1.5; stroke-linecap: square"/>
    <g clip-path="url(#p6c5ec2465f)">
     <use xlink:href="#mbecd668192" x="41.289822" y="112.711703" style="fill: #98df8a; stroke: #98df8a"/>
    </g>
   </g>
   <g id="line2d_62">
    <path d="M 40.152919 113.872466 
" clip-path="url(#p6c5ec2465f)" style="fill: none; stroke: #98df8a; stroke-width: 1.5; stroke-linecap: square"/>
    <g clip-path="url(#p6c5ec2465f)">
     <use xlink:href="#mbecd668192" x="40.152919" y="113.872466" style="fill: #98df8a; stroke: #98df8a"/>
    </g>
   </g>
   <g id="line2d_63">
    <path d="M 92.120907 114.393805 
" clip-path="url(#p6c5ec2465f)" style="fill: none; stroke: #aec7e8; stroke-width: 1.5; stroke-linecap: square"/>
    <g clip-path="url(#p6c5ec2465f)">
     <use xlink:href="#md9078717f1" x="92.120907" y="114.393805" style="fill: #aec7e8; stroke: #aec7e8"/>
    </g>
   </g>
   <g id="line2d_64">
    <path d="M 40.574391 114.823376 
" clip-path="url(#p6c5ec2465f)" style="fill: none; stroke: #98df8a; stroke-width: 1.5; stroke-linecap: square"/>
    <g clip-path="url(#p6c5ec2465f)">
     <use xlink:href="#mbecd668192" x="40.574391" y="114.823376" style="fill: #98df8a; stroke: #98df8a"/>
    </g>
   </g>
   <g id="line2d_65">
    <path d="M 108.902632 81.536975 
" clip-path="url(#p6c5ec2465f)" style="fill: none; stroke: #2ca02c; stroke-width: 1.5; stroke-linecap: square"/>
    <defs>
     <path id="m08bf6c5fd5" d="M 0 1.5 
C 0.397805 1.5 0.77937 1.341951 1.06066 1.06066 
C 1.341951 0.77937 1.5 0.397805 1.5 0 
C 1.5 -0.397805 1.341951 -0.77937 1.06066 -1.06066 
C 0.77937 -1.341951 0.397805 -1.5 0 -1.5 
C -0.397805 -1.5 -0.77937 -1.341951 -1.06066 -1.06066 
C -1.341951 -0.77937 -1.5 -0.397805 -1.5 0 
C -1.5 0.397805 -1.341951 0.77937 -1.06066 1.06066 
C -0.77937 1.341951 -0.397805 1.5 0 1.5 
z
" style="stroke: #2ca02c"/>
    </defs>
    <g clip-path="url(#p6c5ec2465f)">
     <use xlink:href="#m08bf6c5fd5" x="108.902632" y="81.536975" style="fill: #2ca02c; stroke: #2ca02c"/>
    </g>
   </g>
   <g id="line2d_66">
    <path d="M 83.590312 81.650558 
" clip-path="url(#p6c5ec2465f)" style="fill: none; stroke: #2ca02c; stroke-width: 1.5; stroke-linecap: square"/>
    <g clip-path="url(#p6c5ec2465f)">
     <use xlink:href="#m08bf6c5fd5" x="83.590312" y="81.650558" style="fill: #2ca02c; stroke: #2ca02c"/>
    </g>
   </g>
   <g id="line2d_67">
    <path d="M 43.260557 109.34483 
" clip-path="url(#p6c5ec2465f)" style="fill: none; stroke: #98df8a; stroke-width: 1.5; stroke-linecap: square"/>
    <g clip-path="url(#p6c5ec2465f)">
     <use xlink:href="#mbecd668192" x="43.260557" y="109.34483" style="fill: #98df8a; stroke: #98df8a"/>
    </g>
   </g>
   <g id="line2d_68">
    <path d="M 50.970229 98.998882 
" clip-path="url(#p6c5ec2465f)" style="fill: none; stroke: #aec7e8; stroke-width: 1.5; stroke-linecap: square"/>
    <g clip-path="url(#p6c5ec2465f)">
     <use xlink:href="#md9078717f1" x="50.970229" y="98.998882" style="fill: #aec7e8; stroke: #aec7e8"/>
    </g>
   </g>
   <g id="line2d_69">
    <path d="M 49.537565 82.753293 
" clip-path="url(#p6c5ec2465f)" style="fill: none; stroke: #ff7f0e; stroke-width: 1.5; stroke-linecap: square"/>
    <g clip-path="url(#p6c5ec2465f)">
     <use xlink:href="#m72de625cd5" x="49.537565" y="82.753293" style="fill: #ff7f0e; stroke: #ff7f0e"/>
    </g>
   </g>
   <g id="line2d_70">
    <path d="M 73.914693 67.763339 
" clip-path="url(#p6c5ec2465f)" style="fill: none; stroke: #ff7f0e; stroke-width: 1.5; stroke-linecap: square"/>
    <g clip-path="url(#p6c5ec2465f)">
     <use xlink:href="#m72de625cd5" x="73.914693" y="67.763339" style="fill: #ff7f0e; stroke: #ff7f0e"/>
    </g>
   </g>
   <g id="line2d_71">
    <path d="M 50.676689 96.167953 
" clip-path="url(#p6c5ec2465f)" style="fill: none; stroke: #aec7e8; stroke-width: 1.5; stroke-linecap: square"/>
    <g clip-path="url(#p6c5ec2465f)">
     <use xlink:href="#md9078717f1" x="50.676689" y="96.167953" style="fill: #aec7e8; stroke: #aec7e8"/>
    </g>
   </g>
   <g id="line2d_72">
    <path d="M 63.731412 83.556691 
" clip-path="url(#p6c5ec2465f)" style="fill: none; stroke: #aec7e8; stroke-width: 1.5; stroke-linecap: square"/>
    <g clip-path="url(#p6c5ec2465f)">
     <use xlink:href="#md9078717f1" x="63.731412" y="83.556691" style="fill: #aec7e8; stroke: #aec7e8"/>
    </g>
   </g>
   <g id="line2d_73">
    <path d="M 57.585558 79.617654 
" clip-path="url(#p6c5ec2465f)" style="fill: none; stroke: #ff7f0e; stroke-width: 1.5; stroke-linecap: square"/>
    <g clip-path="url(#p6c5ec2465f)">
     <use xlink:href="#m72de625cd5" x="57.585558" y="79.617654" style="fill: #ff7f0e; stroke: #ff7f0e"/>
    </g>
   </g>
   <g id="line2d_74">
    <path d="M 66.955996 84.349864 
" clip-path="url(#p6c5ec2465f)" style="fill: none; stroke: #aec7e8; stroke-width: 1.5; stroke-linecap: square"/>
    <g clip-path="url(#p6c5ec2465f)">
     <use xlink:href="#md9078717f1" x="66.955996" y="84.349864" style="fill: #aec7e8; stroke: #aec7e8"/>
    </g>
   </g>
   <g id="line2d_75">
    <path d="M 66.8495 89.380185 
" clip-path="url(#p6c5ec2465f)" style="fill: none; stroke: #aec7e8; stroke-width: 1.5; stroke-linecap: square"/>
    <g clip-path="url(#p6c5ec2465f)">
     <use xlink:href="#md9078717f1" x="66.8495" y="89.380185" style="fill: #aec7e8; stroke: #aec7e8"/>
    </g>
   </g>
   <g id="line2d_76">
    <path d="M 84.105938 46.196414 
" clip-path="url(#p6c5ec2465f)" style="fill: none; stroke: #1f77b4; stroke-width: 1.5; stroke-linecap: square"/>
    <defs>
     <path id="m86ba771457" d="M 0 1.5 
C 0.397805 1.5 0.77937 1.341951 1.06066 1.06066 
C 1.341951 0.77937 1.5 0.397805 1.5 0 
C 1.5 -0.397805 1.341951 -0.77937 1.06066 -1.06066 
C 0.77937 -1.341951 0.397805 -1.5 0 -1.5 
C -0.397805 -1.5 -0.77937 -1.341951 -1.06066 -1.06066 
C -1.341951 -0.77937 -1.5 -0.397805 -1.5 0 
C -1.5 0.397805 -1.341951 0.77937 -1.06066 1.06066 
C -0.77937 1.341951 -0.397805 1.5 0 1.5 
z
" style="stroke: #1f77b4"/>
    </defs>
    <g clip-path="url(#p6c5ec2465f)">
     <use xlink:href="#m86ba771457" x="84.105938" y="46.196414" style="fill: #1f77b4; stroke: #1f77b4"/>
    </g>
   </g>
   <g id="line2d_77">
    <path d="M 86.323094 47.534157 
" clip-path="url(#p6c5ec2465f)" style="fill: none; stroke: #1f77b4; stroke-width: 1.5; stroke-linecap: square"/>
    <g clip-path="url(#p6c5ec2465f)">
     <use xlink:href="#m86ba771457" x="86.323094" y="47.534157" style="fill: #1f77b4; stroke: #1f77b4"/>
    </g>
   </g>
   <g id="line2d_78">
    <path d="M 87.939234 42.452418 
" clip-path="url(#p6c5ec2465f)" style="fill: none; stroke: #1f77b4; stroke-width: 1.5; stroke-linecap: square"/>
    <g clip-path="url(#p6c5ec2465f)">
     <use xlink:href="#m86ba771457" x="87.939234" y="42.452418" style="fill: #1f77b4; stroke: #1f77b4"/>
    </g>
   </g>
   <g id="line2d_79">
    <path d="M 100.167608 46.162489 
" clip-path="url(#p6c5ec2465f)" style="fill: none; stroke: #1f77b4; stroke-width: 1.5; stroke-linecap: square"/>
    <g clip-path="url(#p6c5ec2465f)">
     <use xlink:href="#m86ba771457" x="100.167608" y="46.162489" style="fill: #1f77b4; stroke: #1f77b4"/>
    </g>
   </g>
   <g id="line2d_80">
    <path d="M 86.403479 41.996425 
" clip-path="url(#p6c5ec2465f)" style="fill: none; stroke: #1f77b4; stroke-width: 1.5; stroke-linecap: square"/>
    <g clip-path="url(#p6c5ec2465f)">
     <use xlink:href="#m86ba771457" x="86.403479" y="41.996425" style="fill: #1f77b4; stroke: #1f77b4"/>
    </g>
   </g>
   <g id="line2d_81">
    <path d="M 113.39813 76.030289 
" clip-path="url(#p6c5ec2465f)" style="fill: none; stroke: #ffbb78; stroke-width: 1.5; stroke-linecap: square"/>
    <defs>
     <path id="m4a3fc9dc22" d="M 0 1.5 
C 0.397805 1.5 0.77937 1.341951 1.06066 1.06066 
C 1.341951 0.77937 1.5 0.397805 1.5 0 
C 1.5 -0.397805 1.341951 -0.77937 1.06066 -1.06066 
C 0.77937 -1.341951 0.397805 -1.5 0 -1.5 
C -0.397805 -1.5 -0.77937 -1.341951 -1.06066 -1.06066 
C -1.341951 -0.77937 -1.5 -0.397805 -1.5 0 
C -1.5 0.397805 -1.341951 0.77937 -1.06066 1.06066 
C -0.77937 1.341951 -0.397805 1.5 0 1.5 
z
" style="stroke: #ffbb78"/>
    </defs>
    <g clip-path="url(#p6c5ec2465f)">
     <use xlink:href="#m4a3fc9dc22" x="113.39813" y="76.030289" style="fill: #ffbb78; stroke: #ffbb78"/>
    </g>
   </g>
   <g id="line2d_82">
    <path d="M 123.164819 71.872905 
" clip-path="url(#p6c5ec2465f)" style="fill: none; stroke: #ff9896; stroke-width: 1.5; stroke-linecap: square"/>
    <g clip-path="url(#p6c5ec2465f)">
     <use xlink:href="#m841668c98f" x="123.164819" y="71.872905" style="fill: #ff9896; stroke: #ff9896"/>
    </g>
   </g>
   <g id="line2d_83">
    <path d="M 126.283975 67.010456 
" clip-path="url(#p6c5ec2465f)" style="fill: none; stroke: #ff9896; stroke-width: 1.5; stroke-linecap: square"/>
    <g clip-path="url(#p6c5ec2465f)">
     <use xlink:href="#m841668c98f" x="126.283975" y="67.010456" style="fill: #ff9896; stroke: #ff9896"/>
    </g>
   </g>
   <g id="line2d_84">
    <path d="M 87.774635 83.400097 
" clip-path="url(#p6c5ec2465f)" style="fill: none; stroke: #ffbb78; stroke-width: 1.5; stroke-linecap: square"/>
    <g clip-path="url(#p6c5ec2465f)">
     <use xlink:href="#m4a3fc9dc22" x="87.774635" y="83.400097" style="fill: #ffbb78; stroke: #ffbb78"/>
    </g>
   </g>
   <g id="line2d_85">
    <path d="M 70.455172 93.09482 
" clip-path="url(#p6c5ec2465f)" style="fill: none; stroke: #aec7e8; stroke-width: 1.5; stroke-linecap: square"/>
    <g clip-path="url(#p6c5ec2465f)">
     <use xlink:href="#md9078717f1" x="70.455172" y="93.09482" style="fill: #aec7e8; stroke: #aec7e8"/>
    </g>
   </g>
   <g id="line2d_86">
    <path d="M 140.767898 87.533276 
" clip-path="url(#p6c5ec2465f)" style="fill: none; stroke: #2ca02c; stroke-width: 1.5; stroke-linecap: square"/>
    <g clip-path="url(#p6c5ec2465f)">
     <use xlink:href="#m08bf6c5fd5" x="140.767898" y="87.533276" style="fill: #2ca02c; stroke: #2ca02c"/>
    </g>
   </g>
   <g id="line2d_87">
    <path d="M 132.894768 79.591095 
" clip-path="url(#p6c5ec2465f)" style="fill: none; stroke: #2ca02c; stroke-width: 1.5; stroke-linecap: square"/>
    <g clip-path="url(#p6c5ec2465f)">
     <use xlink:href="#m08bf6c5fd5" x="132.894768" y="79.591095" style="fill: #2ca02c; stroke: #2ca02c"/>
    </g>
   </g>
   <g id="patch_3">
    <path d="M 34.240625 120.96399 
L 34.240625 10.08399 
" style="fill: none; stroke: #000000; stroke-width: 0.8; stroke-linejoin: miter; stroke-linecap: square"/>
   </g>
   <g id="patch_4">
    <path d="M 145.840625 120.96399 
L 145.840625 10.08399 
" style="fill: none; stroke: #000000; stroke-width: 0.8; stroke-linejoin: miter; stroke-linecap: square"/>
   </g>
   <g id="patch_5">
    <path d="M 34.240625 120.96399 
L 145.840625 120.96399 
" style="fill: none; stroke: #000000; stroke-width: 0.8; stroke-linejoin: miter; stroke-linecap: square"/>
   </g>
   <g id="patch_6">
    <path d="M 34.240625 10.08399 
L 145.840625 10.08399 
" style="fill: none; stroke: #000000; stroke-width: 0.8; stroke-linejoin: miter; stroke-linecap: square"/>
   </g>
  </g>
 </g>
 <defs>
  <clipPath id="p6c5ec2465f">
   <rect x="34.240625" y="10.08399" width="111.6" height="110.88"/>
  </clipPath>
 </defs>
</svg>
